<svg width="728" height="777" fill="none" xmlns="http://www.w3.org/2000/svg"><g opacity=".05" clip-path="url(#clip0)"><path d="M256.128 646.569H199.13v133.299h56.998V646.569z" fill="#333"/><path d="M225.038 639.844H199.13v7.587h25.908v-7.587zm-10.881-4.312H199.13v4.312h15.027v-4.312z" fill="#333"/><path opacity=".06" d="M232.293 655.881h-9.327v6.898h9.327v-6.898z" fill="#fff"/><path opacity=".12" d="M232.293 672.953h-9.327v6.897h9.327v-6.897z" fill="#fff"/><path opacity=".19" d="M232.293 707.097h-9.327v6.898h9.327v-6.898z" fill="#fff"/><path opacity=".14" d="M232.293 741.241h-9.327v6.898h9.327v-6.898z" fill="#fff"/><path opacity=".1" d="M232.293 758.313h-9.327v6.898h9.327v-6.898z" fill="#fff"/><path d="M113.116 661.054h-78.07v71.392h78.07v-71.392z" fill="#333"/><path d="M100.853 654.673H47.482v30.695h53.371v-30.695zm17.962 51.389h-78.07v71.392h78.07v-71.392z" fill="#333"/><path d="M106.38 699.681H53.009v30.695h53.371v-30.695zm116.413-3.104h-78.069v82.256h78.069v-82.256z" fill="#333"/><path d="M210.53 689.334h-53.371v35.524h53.371v-35.524zm273.589 32.248h-78.07v79.497h78.07v-79.497z" fill="#333"/><path d="M471.856 714.512h-53.371v34.316h53.371v-34.316zM314.853 557.415h-87.224v221.246h87.224V557.415z" fill="#333"/><path opacity=".46" d="M253.019 567.417h-21.072v3.966h21.072v-3.966z" fill="#E6E6E6"/><path opacity=".34" d="M281.863 567.417h-21.071v3.966h21.071v-3.966z" fill="#E6E6E6"/><path opacity=".52" d="M310.535 567.417h-21.072v3.966h21.072v-3.966z" fill="#E6E6E6"/><path opacity=".54" d="M253.019 576.557h-21.072v3.966h21.072v-3.966z" fill="#E6E6E6"/><path opacity=".3" d="M281.863 576.557h-21.071v3.966h21.071v-3.966z" fill="#E6E6E6"/><path opacity=".06" d="M310.535 576.557h-21.072v3.966h21.072v-3.966z" fill="#E6E6E6"/><path opacity=".15" d="M253.019 585.696h-21.072v3.966h21.072v-3.966z" fill="#E6E6E6"/><path opacity=".42" d="M281.863 585.696h-21.071v3.966h21.071v-3.966z" fill="#E6E6E6"/><path opacity=".48" d="M310.535 585.696h-21.072v3.966h21.072v-3.966z" fill="#E6E6E6"/><path opacity=".18" d="M253.019 594.835h-21.072v3.967h21.072v-3.967z" fill="#E6E6E6"/><path opacity=".28" d="M310.535 594.835h-21.072v3.967h21.072v-3.967z" fill="#E6E6E6"/><path opacity=".29" d="M253.019 603.975h-21.072v3.966h21.072v-3.966z" fill="#E6E6E6"/><path opacity=".28" d="M281.863 603.975h-21.071v3.966h21.071v-3.966z" fill="#E6E6E6"/><path opacity=".56" d="M310.535 603.975h-21.072v3.966h21.072v-3.966z" fill="#E6E6E6"/><path opacity=".41" d="M253.019 613.115h-21.072v3.966h21.072v-3.966z" fill="#E6E6E6"/><path opacity=".16" d="M281.863 613.115h-21.071v3.966h21.071v-3.966z" fill="#E6E6E6"/><path opacity=".4" d="M310.535 613.115h-21.072v3.966h21.072v-3.966z" fill="#E6E6E6"/><path opacity=".1" d="M253.019 622.254h-21.072v3.967h21.072v-3.967z" fill="#E6E6E6"/><path opacity=".17" d="M281.863 622.254h-21.071v3.967h21.071v-3.967z" fill="#E6E6E6"/><path opacity=".08" d="M310.535 622.254h-21.072v3.967h21.072v-3.967z" fill="#E6E6E6"/><path opacity=".49" d="M253.019 631.394h-21.072v3.966h21.072v-3.966z" fill="#E6E6E6"/><path opacity=".58" d="M281.863 631.394h-21.071v3.966h21.071v-3.966zm28.672 0h-21.072v3.966h21.072v-3.966z" fill="#E6E6E6"/><path opacity=".26" d="M253.019 640.533h-21.072v3.967h21.072v-3.967z" fill="#E6E6E6"/><path opacity=".37" d="M281.863 640.533h-21.071v3.967h21.071v-3.967z" fill="#E6E6E6"/><path opacity=".34" d="M310.535 640.533h-21.072v3.967h21.072v-3.967z" fill="#E6E6E6"/><path opacity=".55" d="M253.019 649.673h-21.072v3.966h21.072v-3.966z" fill="#E6E6E6"/><path opacity=".12" d="M281.863 649.673h-21.071v3.966h21.071v-3.966z" fill="#E6E6E6"/><path opacity=".6" d="M310.535 649.673h-21.072v3.966h21.072v-3.966z" fill="#E6E6E6"/><path opacity=".02" d="M253.019 658.812h-21.072v3.967h21.072v-3.967z" fill="#E6E6E6"/><path opacity=".28" d="M281.863 658.812h-21.071v3.967h21.071v-3.967z" fill="#E6E6E6"/><path opacity=".21" d="M310.535 658.812h-21.072v3.967h21.072v-3.967z" fill="#E6E6E6"/><path opacity=".57" d="M253.019 667.952h-21.072v3.966h21.072v-3.966z" fill="#E6E6E6"/><path opacity=".38" d="M281.863 667.952h-21.071v3.966h21.071v-3.966z" fill="#E6E6E6"/><path opacity=".25" d="M310.535 667.952h-21.072v3.966h21.072v-3.966z" fill="#E6E6E6"/><path opacity=".15" d="M253.019 677.092h-21.072v3.966h21.072v-3.966z" fill="#E6E6E6"/><path opacity=".47" d="M281.863 677.092h-21.071v3.966h21.071v-3.966z" fill="#E6E6E6"/><path opacity=".3" d="M310.535 677.092h-21.072v3.966h21.072v-3.966z" fill="#E6E6E6"/><path opacity=".4" d="M253.019 686.231h-21.072v3.966h21.072v-3.966z" fill="#E6E6E6"/><path opacity=".39" d="M281.863 686.231h-21.071v3.966h21.071v-3.966z" fill="#E6E6E6"/><path opacity=".24" d="M310.535 686.231h-21.072v3.966h21.072v-3.966z" fill="#E6E6E6"/><path opacity=".46" d="M253.019 695.371h-21.072v3.966h21.072v-3.966z" fill="#E6E6E6"/><path opacity=".22" d="M281.863 695.371h-21.071v3.966h21.071v-3.966z" fill="#E6E6E6"/><path opacity=".11" d="M310.535 695.371h-21.072v3.966h21.072v-3.966zm-28.672 9.139h-21.071v3.967h21.071v-3.967z" fill="#E6E6E6"/><path opacity=".02" d="M310.535 704.51h-21.072v3.967h21.072v-3.967z" fill="#E6E6E6"/><path opacity=".27" d="M253.019 713.65h-21.072v3.966h21.072v-3.966z" fill="#E6E6E6"/><path opacity=".21" d="M281.863 713.65h-21.071v3.966h21.071v-3.966z" fill="#E6E6E6"/><path opacity=".49" d="M310.535 713.65h-21.072v3.966h21.072v-3.966z" fill="#E6E6E6"/><path opacity=".6" d="M253.019 722.79h-21.072v3.966h21.072v-3.966z" fill="#E6E6E6"/><path opacity=".31" d="M281.863 722.79h-21.071v3.966h21.071v-3.966z" fill="#E6E6E6"/><path opacity=".22" d="M310.535 722.79h-21.072v3.966h21.072v-3.966z" fill="#E6E6E6"/><path opacity=".54" d="M253.019 731.929h-21.072v3.966h21.072v-3.966z" fill="#E6E6E6"/><path opacity=".6" d="M281.863 731.929h-21.071v3.966h21.071v-3.966z" fill="#E6E6E6"/><path opacity=".08" d="M310.535 731.929h-21.072v3.966h21.072v-3.966z" fill="#E6E6E6"/><path opacity=".55" d="M281.863 741.069h-21.071v3.966h21.071v-3.966z" fill="#E6E6E6"/><path d="M310.535 741.069h-21.072v3.966h21.072v-3.966z" fill="#E6E6E6"/><path opacity=".6" d="M254.401 567.417h-1.382v177.618h1.382V567.417zm35.062 0h-1.382v177.618h1.382V567.417z" fill="#E6E6E6"/><path d="M358.378 557.415h-43.525v221.246h43.525V557.415z" fill="#4D4D4D"/><path opacity=".69" d="M351.988 567.417h-32.817v3.966h32.817v-3.966z" fill="#E6E6E6"/><path opacity=".79" d="M351.988 576.557h-32.817v3.966h32.817v-3.966z" fill="#E6E6E6"/><path opacity=".19" d="M351.988 585.696h-32.817v3.966h32.817v-3.966z" fill="#E6E6E6"/><path opacity=".88" d="M351.988 594.835h-32.817v3.967h32.817v-3.967z" fill="#E6E6E6"/><path opacity=".5" d="M351.988 603.975h-32.817v3.966h32.817v-3.966z" fill="#E6E6E6"/><path opacity=".25" d="M351.988 613.115h-32.817v3.966h32.817v-3.966z" fill="#E6E6E6"/><path opacity=".91" d="M351.988 622.254h-32.817v3.967h32.817v-3.967z" fill="#E6E6E6"/><path opacity=".02" d="M351.988 631.394h-32.817v3.966h32.817v-3.966z" fill="#E6E6E6"/><path opacity=".53" d="M351.988 640.533h-32.817v3.967h32.817v-3.967z" fill="#E6E6E6"/><path opacity=".65" d="M351.988 649.673h-32.817v3.966h32.817v-3.966z" fill="#E6E6E6"/><path d="M351.988 658.812h-32.817v3.967h32.817v-3.967z" fill="#E6E6E6"/><path opacity=".8" d="M351.988 667.952h-32.817v3.966h32.817v-3.966z" fill="#E6E6E6"/><path opacity=".82" d="M351.988 677.092h-32.817v3.966h32.817v-3.966z" fill="#E6E6E6"/><path opacity=".75" d="M351.988 686.231h-32.817v3.966h32.817v-3.966z" fill="#E6E6E6"/><path opacity=".31" d="M351.988 695.371h-32.817v3.966h32.817v-3.966z" fill="#E6E6E6"/><path opacity=".22" d="M351.988 704.51h-32.817v3.967h32.817v-3.967z" fill="#E6E6E6"/><path opacity=".43" d="M351.988 713.65h-32.817v3.966h32.817v-3.966z" fill="#E6E6E6"/><path opacity=".68" d="M351.988 722.79h-32.817v3.966h32.817v-3.966z" fill="#E6E6E6"/><path opacity=".38" d="M351.988 731.929h-32.817v3.966h32.817v-3.966z" fill="#E6E6E6"/><path opacity=".84" d="M351.988 741.069h-32.817v3.966h32.817v-3.966z" fill="#E6E6E6"/><path d="M243.001 545.689v11.726h56.48v-11.726h-56.48zm12.609 7.932h-5.873v-3.966h5.873v3.966zm9.154 0h-5.7v-3.966h5.7v3.966zm9.327 0h-5.7v-3.966h5.7v3.966zm9.327 0h-5.873v-3.966h5.873v3.966zm9.327 0h-5.873v-3.966h5.873v3.966zm17.099-3.966h-1.554v3.966h1.554v-3.966z" fill="#333"/><path d="M299.481 545.689v11.726h26.599v-11.726h-26.599zm10.363 7.932h-5.7v-3.966h5.7v3.966zm12.263 0h-5.699v-3.966h5.699v3.966z" fill="#4D4D4D"/><path d="M321.935 549.655h-1.555v3.966h1.555v-3.966zm4.49 244.008H208.976l117.449-86.567v86.567z" fill="#333"/><path d="M151.287 510.51h-9.5v36.041h9.5V510.51z" fill="#4D4D4D"/><path d="M141.96 510.51h-9.672v36.041h9.672V510.51z" fill="#333"/><path d="M161.132 510.51h-9.672v36.041h9.672V510.51zm27.981 60.7h-26.945v205.554h26.945V571.21z" fill="#666"/><path d="M130.561 571.21h-23.49v205.554h23.49V571.21z" fill="#333"/><path d="M162.168 571.21h-31.78v205.554h31.78V571.21z" fill="#4D4D4D"/><path opacity=".6" d="M113.807 577.246h-3.455v196.759h3.455V577.246zm6.736 0h-3.455v196.759h3.455V577.246zm6.736 0h-3.454v196.759h3.454V577.246z" fill="#E6E6E6"/><path d="M167.523 577.246h-3.455v196.759h3.455V577.246zm6.736 0h-3.455v196.759h3.455V577.246zm13.126 0h-3.454v196.759h3.454V577.246zm-6.39 0h-3.455v196.759h3.455V577.246z" fill="#E6E6E6"/><path opacity=".8" d="M134.36 774.005h23.836V577.246H134.36v196.759zm3.8-193.31h16.236v189.861H138.16V580.695z" fill="#E6E6E6"/><path opacity=".8" d="M141.269 767.28h10.191V583.799h-10.191V767.28zm3.455-179.17h3.281v174.858h-3.281V588.11z" fill="#E6E6E6"/><path opacity=".8" d="M146.624 588.11h-.691v174.859h.691V588.11z" fill="#E6E6E6"/><path d="M158.541 535.169h-23.835v36.041h23.835v-36.041z" fill="#4D4D4D"/><path d="M158.541 535.169h-23.835v36.041h23.835v-36.041z" fill="#4D4D4D"/><path d="M182.377 535.169h-23.836v36.041h23.836v-36.041z" fill="#666"/><path d="M134.706 535.169H110.87v36.041h23.836v-36.041z" fill="#333"/><path d="M160.959 510.51h-28.671l9.499 6.553h9.673l9.499-6.553z" fill="gray"/><path d="M673.42 497.232h-13.817v40.524h13.817v-40.524z" fill="#4D4D4D"/><path d="M659.43 497.232h-13.818v40.524h13.818v-40.524z" fill="#333"/><path d="M687.238 497.232H673.42v40.524h13.818v-40.524zM728 565.692h-39.035v231.593H728V565.692z" fill="#666"/><path d="M643.021 565.692h-33.853v231.593h33.853V565.692z" fill="#333"/><path d="M688.965 565.692h-45.943v231.593h45.943V565.692z" fill="#4D4D4D"/><path opacity=".4" d="M618.841 572.59h-5.009v221.591h5.009V572.59zm9.845 0h-5.009v221.591h5.009V572.59zm9.845 0h-5.009v221.591h5.009V572.59z" fill="#E6E6E6"/><path d="M696.738 572.59h-5.009v221.591h5.009V572.59zm9.845 0h-5.009v221.591h5.009V572.59zm18.826 0H720.4v221.591h5.009V572.59zm-9.154 0h-5.009v221.591h5.009V572.59zm-67.361 221.591h34.544V572.59h-34.544v221.591zm5.354-217.797h23.49v214.003h-23.49V576.384z" fill="#E6E6E6"/><path d="M658.566 786.766h14.854V580.005h-14.854v206.761zm5.182-201.932h4.663v197.104h-4.663V584.834z" fill="#E6E6E6"/><path d="M666.512 584.833h-.864v197.104h.864V584.833z" fill="#E6E6E6"/><path d="M683.784 525.168H649.24v40.524h34.544v-40.524z" fill="#4D4D4D"/><path d="M683.784 525.168H649.24v40.524h34.544v-40.524z" fill="#4D4D4D"/><path d="M718.328 525.168h-34.544v40.524h34.544v-40.524z" fill="#666"/><path d="M649.412 525.168h-34.544v40.524h34.544v-40.524z" fill="#333"/><path d="M687.411 497.232h-41.799l13.991 7.415h13.817l13.991-7.415z" fill="gray"/><path d="M573.761 597.766h-94.478v31.385h94.478v-31.385z" fill="#E6E6E6"/><path d="M516.418 597.766h-37.135v31.385h37.135v-31.385z" fill="#B3B3B3"/><path d="M516.418 629.324h-73.407v152.441h73.407V629.324z" fill="#333"/><path d="M631.104 629.324H516.418v152.441h114.686V629.324z" fill="#4D4D4D"/><path d="M507.436 613.803h-56.479v15.52h56.479v-15.52z" fill="#333"/><path d="M614.005 613.803h-80.661v15.52h80.661v-15.52z" fill="#4D4D4D"/><path d="M548.716 585.867h-32.298v11.899h32.298v-11.899z" fill="#E6E6E6"/><path d="M532.481 573.796h-16.063v11.899h16.063v-11.899z" fill="#4D4D4D"/><path d="M516.245 573.796h-16.063v11.899h16.063v-11.899z" fill="#333"/><path d="M516.418 585.867h-24.699v11.899h24.699v-11.899z" fill="#B3B3B3"/><path d="M515.381 573.796l1.037-27.591.863 27.591h-1.9z" fill="#333"/><path opacity=".12" d="M466.156 635.531h-6.045v6.036h6.045v-6.036z" fill="#fff"/><path opacity=".25" d="M474.447 635.531h-6.046v6.036h6.046v-6.036z" fill="#fff"/><path opacity=".36" d="M482.737 635.531h-6.045v6.036h6.045v-6.036z" fill="#fff"/><path opacity=".12" d="M491.028 635.531h-6.046v6.036h6.046v-6.036z" fill="#fff"/><path opacity=".14" d="M499.318 635.531h-6.045v6.036h6.045v-6.036z" fill="#fff"/><path opacity=".28" d="M466.156 643.464h-6.045v6.035h6.045v-6.035z" fill="#fff"/><path opacity=".4" d="M474.447 643.464h-6.046v6.035h6.046v-6.035z" fill="#fff"/><path opacity=".16" d="M482.737 643.464h-6.045v6.035h6.045v-6.035z" fill="#fff"/><path opacity=".17" d="M499.318 643.464h-6.045v6.035h6.045v-6.035z" fill="#fff"/><path opacity=".27" d="M466.156 651.396h-6.045v6.036h6.045v-6.036z" fill="#fff"/><path opacity=".45" d="M474.447 651.396h-6.046v6.036h6.046v-6.036zm8.29 0h-6.045v6.036h6.045v-6.036z" fill="#fff"/><path opacity=".48" d="M491.028 651.396h-6.046v6.036h6.046v-6.036z" fill="#fff"/><path opacity=".25" d="M499.318 651.396h-6.045v6.036h6.045v-6.036z" fill="#fff"/><path opacity=".28" d="M466.156 659.329h-6.045v6.035h6.045v-6.035z" fill="#fff"/><path opacity=".13" d="M474.447 659.329h-6.046v6.035h6.046v-6.035z" fill="#fff"/><path opacity=".07" d="M482.737 659.329h-6.045v6.035h6.045v-6.035z" fill="#fff"/><path opacity=".39" d="M491.028 659.329h-6.046v6.035h6.046v-6.035z" fill="#fff"/><path opacity=".47" d="M499.318 659.329h-6.045v6.035h6.045v-6.035z" fill="#fff"/><path opacity=".28" d="M466.156 667.261h-6.045v6.035h6.045v-6.035z" fill="#fff"/><path opacity=".2" d="M474.447 667.261h-6.046v6.035h6.046v-6.035z" fill="#fff"/><path opacity=".04" d="M482.737 667.261h-6.045v6.035h6.045v-6.035z" fill="#fff"/><path opacity=".43" d="M491.028 667.261h-6.046v6.035h6.046v-6.035z" fill="#fff"/><path opacity=".48" d="M499.318 667.261h-6.045v6.035h6.045v-6.035z" fill="#fff"/><path opacity=".28" d="M466.156 675.193h-6.045v6.036h6.045v-6.036z" fill="#fff"/><path opacity=".19" d="M474.447 675.193h-6.046v6.036h6.046v-6.036z" fill="#fff"/><path opacity=".01" d="M482.737 675.193h-6.045v6.036h6.045v-6.036z" fill="#fff"/><path opacity=".27" d="M491.028 675.193h-6.046v6.036h6.046v-6.036z" fill="#fff"/><path opacity=".24" d="M499.318 675.193h-6.045v6.036h6.045v-6.036z" fill="#fff"/><path opacity=".07" d="M466.156 683.298h-6.045v6.036h6.045v-6.036z" fill="#fff"/><path opacity=".25" d="M474.447 683.298h-6.046v6.036h6.046v-6.036z" fill="#fff"/><path opacity=".26" d="M482.737 683.298h-6.045v6.036h6.045v-6.036z" fill="#fff"/><path opacity=".39" d="M491.028 683.298h-6.046v6.036h6.046v-6.036z" fill="#fff"/><path opacity=".22" d="M499.318 683.298h-6.045v6.036h6.045v-6.036z" fill="#fff"/><path opacity=".15" d="M466.156 691.231h-6.045v6.035h6.045v-6.035z" fill="#fff"/><path opacity=".23" d="M474.447 691.231h-6.046v6.035h6.046v-6.035z" fill="#fff"/><path opacity=".05" d="M482.737 691.231h-6.045v6.035h6.045v-6.035z" fill="#fff"/><path opacity=".2" d="M491.028 691.231h-6.046v6.035h6.046v-6.035z" fill="#fff"/><path opacity=".31" d="M499.318 691.231h-6.045v6.035h6.045v-6.035z" fill="#fff"/><path opacity=".15" d="M466.156 699.163h-6.045v6.036h6.045v-6.036z" fill="#fff"/><path opacity=".33" d="M474.447 699.163h-6.046v6.036h6.046v-6.036z" fill="#fff"/><path opacity=".46" d="M482.737 699.163h-6.045v6.036h6.045v-6.036z" fill="#fff"/><path opacity=".25" d="M491.028 699.163h-6.046v6.036h6.046v-6.036z" fill="#fff"/><path opacity=".43" d="M499.318 699.163h-6.045v6.036h6.045v-6.036z" fill="#fff"/><path opacity=".4" d="M466.156 707.096h-6.045v6.035h6.045v-6.035z" fill="#fff"/><path opacity=".39" d="M474.447 707.096h-6.046v6.035h6.046v-6.035z" fill="#fff"/><path opacity=".01" d="M482.737 707.096h-6.045v6.035h6.045v-6.035z" fill="#fff"/><path opacity=".12" d="M491.028 707.096h-6.046v6.035h6.046v-6.035z" fill="#fff"/><path opacity=".07" d="M499.318 707.096h-6.045v6.035h6.045v-6.035zm-33.162 7.932h-6.045v6.036h6.045v-6.036z" fill="#fff"/><path opacity=".02" d="M474.447 715.028h-6.046v6.036h6.046v-6.036z" fill="#fff"/><path opacity=".12" d="M482.737 715.028h-6.045v6.036h6.045v-6.036z" fill="#fff"/><path opacity=".23" d="M491.028 715.028h-6.046v6.036h6.046v-6.036z" fill="#fff"/><path opacity=".26" d="M499.318 715.028h-6.045v6.036h6.045v-6.036z" fill="#fff"/><path opacity=".27" d="M466.156 722.961h-6.045v6.035h6.045v-6.035z" fill="#fff"/><path opacity=".38" d="M474.447 722.961h-6.046v6.035h6.046v-6.035z" fill="#fff"/><path opacity=".05" d="M482.737 722.961h-6.045v6.035h6.045v-6.035z" fill="#fff"/><path opacity=".45" d="M491.028 722.961h-6.046v6.035h6.046v-6.035z" fill="#fff"/><path opacity=".15" d="M499.318 722.961h-6.045v6.035h6.045v-6.035z" fill="#fff"/><path opacity=".06" d="M466.156 730.893h-6.045v6.036h6.045v-6.036z" fill="#fff"/><path opacity=".47" d="M474.447 730.893h-6.046v6.036h6.046v-6.036z" fill="#fff"/><path opacity=".15" d="M482.737 730.893h-6.045v6.036h6.045v-6.036z" fill="#fff"/><path opacity=".44" d="M491.028 730.893h-6.046v6.036h6.046v-6.036z" fill="#fff"/><path opacity=".14" d="M499.318 730.893h-6.045v6.036h6.045v-6.036z" fill="#fff"/><path opacity=".15" d="M466.156 738.826h-6.045v6.035h6.045v-6.035z" fill="#fff"/><path opacity=".43" d="M474.447 738.826h-6.046v6.035h6.046v-6.035z" fill="#fff"/><path opacity=".07" d="M482.737 738.826h-6.045v6.035h6.045v-6.035z" fill="#fff"/><path opacity=".47" d="M491.028 738.826h-6.046v6.035h6.046v-6.035z" fill="#fff"/><path opacity=".11" d="M499.318 738.826h-6.045v6.035h6.045v-6.035z" fill="#fff"/><path opacity=".07" d="M466.156 746.758h-6.045v6.036h6.045v-6.036z" fill="#fff"/><path opacity=".34" d="M474.447 746.758h-6.046v6.036h6.046v-6.036z" fill="#fff"/><path opacity=".5" d="M482.737 746.758h-6.045v6.036h6.045v-6.036z" fill="#fff"/><path opacity=".36" d="M491.028 746.758h-6.046v6.036h6.046v-6.036z" fill="#fff"/><path opacity=".34" d="M499.318 746.758h-6.045v6.036h6.045v-6.036z" fill="#fff"/><path opacity=".47" d="M466.156 754.69h-6.045v6.036h6.045v-6.036z" fill="#fff"/><path opacity=".41" d="M474.447 754.69h-6.046v6.036h6.046v-6.036z" fill="#fff"/><path opacity=".3" d="M482.737 754.69h-6.045v6.036h6.045v-6.036z" fill="#fff"/><path opacity=".33" d="M491.028 754.69h-6.046v6.036h6.046v-6.036z" fill="#fff"/><path opacity=".12" d="M499.318 754.69h-6.045v6.036h6.045v-6.036z" fill="#fff"/><path opacity=".24" d="M466.156 762.623h-6.045v6.035h6.045v-6.035z" fill="#fff"/><path opacity=".29" d="M474.447 762.623h-6.046v6.035h6.046v-6.035z" fill="#fff"/><path opacity=".27" d="M491.028 762.623h-6.046v6.035h6.046v-6.035z" fill="#fff"/><path opacity=".04" d="M499.318 762.623h-6.045v6.035h6.045v-6.035z" fill="#fff"/><path opacity=".11" d="M466.156 770.555h-6.045v6.036h6.045v-6.036z" fill="#fff"/><path opacity=".05" d="M474.447 770.555h-6.046v6.036h6.046v-6.036z" fill="#fff"/><path opacity=".04" d="M482.737 770.555h-6.045v6.036h6.045v-6.036z" fill="#fff"/><path opacity=".02" d="M491.028 770.555h-6.046v6.036h6.046v-6.036z" fill="#fff"/><path opacity=".3" d="M536.453 635.531h-6.045v6.036h6.045v-6.036z" fill="#fff"/><path opacity=".72" d="M544.398 635.531h-6.045v6.036h6.045v-6.036z" fill="#fff"/><path opacity=".7" d="M552.516 635.531h-6.045v6.036h6.045v-6.036z" fill="#fff"/><path opacity=".52" d="M560.634 635.531h-6.045v6.036h6.045v-6.036z" fill="#fff"/><path opacity=".2" d="M568.752 635.531h-6.046v6.036h6.046v-6.036z" fill="#fff"/><path opacity=".32" d="M576.697 635.531h-6.045v6.036h6.045v-6.036z" fill="#fff"/><path opacity=".13" d="M584.815 635.531h-6.045v6.036h6.045v-6.036z" fill="#fff"/><path opacity=".38" d="M592.933 635.531h-6.046v6.036h6.046v-6.036z" fill="#fff"/><path opacity=".61" d="M600.878 635.531h-6.045v6.036h6.045v-6.036z" fill="#fff"/><path d="M608.996 635.531h-6.046v6.036h6.046v-6.036z" fill="#fff"/><path opacity=".91" d="M617.113 635.531h-6.045v6.036h6.045v-6.036z" fill="#fff"/><path opacity=".66" d="M536.453 643.464h-6.045v6.035h6.045v-6.035z" fill="#fff"/><path opacity=".31" d="M544.398 643.464h-6.045v6.035h6.045v-6.035z" fill="#fff"/><path opacity=".95" d="M552.516 643.464h-6.045v6.035h6.045v-6.035z" fill="#fff"/><path opacity=".7" d="M560.634 643.464h-6.045v6.035h6.045v-6.035z" fill="#fff"/><path opacity=".12" d="M568.752 643.464h-6.046v6.035h6.046v-6.035z" fill="#fff"/><path opacity=".24" d="M576.697 643.464h-6.045v6.035h6.045v-6.035z" fill="#fff"/><path opacity=".66" d="M584.815 643.464h-6.045v6.035h6.045v-6.035z" fill="#fff"/><path opacity=".71" d="M592.933 643.464h-6.046v6.035h6.046v-6.035z" fill="#fff"/><path opacity=".42" d="M600.878 643.464h-6.045v6.035h6.045v-6.035z" fill="#fff"/><path opacity=".09" d="M608.996 643.464h-6.046v6.035h6.046v-6.035z" fill="#fff"/><path opacity=".32" d="M617.113 643.464h-6.045v6.035h6.045v-6.035z" fill="#fff"/><path opacity=".65" d="M536.453 651.396h-6.045v6.036h6.045v-6.036z" fill="#fff"/><path d="M544.398 651.396h-6.045v6.036h6.045v-6.036zm8.118 0h-6.045v6.036h6.045v-6.036z" fill="#fff"/><path opacity=".71" d="M560.634 651.396h-6.045v6.036h6.045v-6.036z" fill="#fff"/><path opacity=".2" d="M568.752 651.396h-6.046v6.036h6.046v-6.036z" fill="#fff"/><path opacity=".19" d="M576.697 651.396h-6.045v6.036h6.045v-6.036z" fill="#fff"/><path opacity=".62" d="M584.815 651.396h-6.045v6.036h6.045v-6.036z" fill="#fff"/><path opacity=".93" d="M592.933 651.396h-6.046v6.036h6.046v-6.036z" fill="#fff"/><path opacity=".56" d="M600.878 651.396h-6.045v6.036h6.045v-6.036z" fill="#fff"/><path opacity=".57" d="M608.996 651.396h-6.046v6.036h6.046v-6.036z" fill="#fff"/><path opacity=".52" d="M617.113 651.396h-6.045v6.036h6.045v-6.036z" fill="#fff"/><path opacity=".74" d="M536.453 659.329h-6.045v6.035h6.045v-6.035z" fill="#fff"/><path opacity=".56" d="M544.398 659.329h-6.045v6.035h6.045v-6.035z" fill="#fff"/><path opacity=".78" d="M552.516 659.329h-6.045v6.035h6.045v-6.035z" fill="#fff"/><path opacity=".41" d="M560.634 659.329h-6.045v6.035h6.045v-6.035z" fill="#fff"/><path opacity=".14" d="M568.752 659.329h-6.046v6.035h6.046v-6.035z" fill="#fff"/><path opacity=".28" d="M576.697 659.329h-6.045v6.035h6.045v-6.035z" fill="#fff"/><path opacity=".36" d="M584.815 659.329h-6.045v6.035h6.045v-6.035z" fill="#fff"/><path opacity=".14" d="M592.933 659.329h-6.046v6.035h6.046v-6.035z" fill="#fff"/><path opacity=".5" d="M600.878 659.329h-6.045v6.035h6.045v-6.035z" fill="#fff"/><path opacity=".98" d="M608.996 659.329h-6.046v6.035h6.046v-6.035z" fill="#fff"/><path opacity=".59" d="M617.113 659.329h-6.045v6.035h6.045v-6.035z" fill="#fff"/><path opacity=".07" d="M536.453 667.261h-6.045v6.035h6.045v-6.035z" fill="#fff"/><path opacity=".1" d="M544.398 667.261h-6.045v6.035h6.045v-6.035z" fill="#fff"/><path opacity=".88" d="M552.516 667.261h-6.045v6.035h6.045v-6.035z" fill="#fff"/><path opacity=".68" d="M560.634 667.261h-6.045v6.035h6.045v-6.035z" fill="#fff"/><path opacity=".81" d="M568.752 667.261h-6.046v6.035h6.046v-6.035z" fill="#fff"/><path opacity=".62" d="M576.697 667.261h-6.045v6.035h6.045v-6.035z" fill="#fff"/><path opacity=".97" d="M584.815 667.261h-6.045v6.035h6.045v-6.035z" fill="#fff"/><path opacity=".81" d="M592.933 667.261h-6.046v6.035h6.046v-6.035z" fill="#fff"/><path opacity=".79" d="M600.878 667.261h-6.045v6.035h6.045v-6.035z" fill="#fff"/><path opacity=".03" d="M608.996 667.261h-6.046v6.035h6.046v-6.035z" fill="#fff"/><path opacity=".95" d="M617.113 667.261h-6.045v6.035h6.045v-6.035z" fill="#fff"/><path opacity=".62" d="M536.453 675.193h-6.045v6.036h6.045v-6.036z" fill="#fff"/><path opacity=".22" d="M544.398 675.193h-6.045v6.036h6.045v-6.036z" fill="#fff"/><path opacity=".42" d="M552.516 675.193h-6.045v6.036h6.045v-6.036z" fill="#fff"/><path opacity=".56" d="M560.634 675.193h-6.045v6.036h6.045v-6.036z" fill="#fff"/><path opacity=".03" d="M568.752 675.193h-6.046v6.036h6.046v-6.036z" fill="#fff"/><path opacity=".64" d="M576.697 675.193h-6.045v6.036h6.045v-6.036z" fill="#fff"/><path opacity=".82" d="M584.815 675.193h-6.045v6.036h6.045v-6.036z" fill="#fff"/><path opacity=".52" d="M592.933 675.193h-6.046v6.036h6.046v-6.036z" fill="#fff"/><path opacity=".46" d="M600.878 675.193h-6.045v6.036h6.045v-6.036z" fill="#fff"/><path opacity=".27" d="M608.996 675.193h-6.046v6.036h6.046v-6.036z" fill="#fff"/><path opacity=".46" d="M617.113 675.193h-6.045v6.036h6.045v-6.036z" fill="#fff"/><path opacity=".66" d="M536.453 683.298h-6.045v6.036h6.045v-6.036z" fill="#fff"/><path opacity=".7" d="M544.398 683.298h-6.045v6.036h6.045v-6.036z" fill="#fff"/><path opacity=".94" d="M552.516 683.298h-6.045v6.036h6.045v-6.036z" fill="#fff"/><path opacity=".5" d="M560.634 683.298h-6.045v6.036h6.045v-6.036z" fill="#fff"/><path opacity=".12" d="M568.752 683.298h-6.046v6.036h6.046v-6.036z" fill="#fff"/><path opacity=".36" d="M576.697 683.298h-6.045v6.036h6.045v-6.036z" fill="#fff"/><path opacity=".51" d="M584.815 683.298h-6.045v6.036h6.045v-6.036z" fill="#fff"/><path opacity=".37" d="M592.933 683.298h-6.046v6.036h6.046v-6.036z" fill="#fff"/><path opacity=".66" d="M600.878 683.298h-6.045v6.036h6.045v-6.036z" fill="#fff"/><path opacity=".42" d="M608.996 683.298h-6.046v6.036h6.046v-6.036z" fill="#fff"/><path opacity=".5" d="M617.113 683.298h-6.045v6.036h6.045v-6.036z" fill="#fff"/><path opacity=".52" d="M536.453 691.231h-6.045v6.035h6.045v-6.035z" fill="#fff"/><path opacity=".61" d="M544.398 691.231h-6.045v6.035h6.045v-6.035z" fill="#fff"/><path opacity=".84" d="M552.516 691.231h-6.045v6.035h6.045v-6.035z" fill="#fff"/><path opacity=".89" d="M560.634 691.231h-6.045v6.035h6.045v-6.035z" fill="#fff"/><path opacity=".33" d="M568.752 691.231h-6.046v6.035h6.046v-6.035z" fill="#fff"/><path opacity=".25" d="M576.697 691.231h-6.045v6.035h6.045v-6.035z" fill="#fff"/><path opacity=".95" d="M584.815 691.231h-6.045v6.035h6.045v-6.035z" fill="#fff"/><path opacity=".09" d="M592.933 691.231h-6.046v6.035h6.046v-6.035z" fill="#fff"/><path opacity=".44" d="M600.878 691.231h-6.045v6.035h6.045v-6.035z" fill="#fff"/><path opacity=".51" d="M608.996 691.231h-6.046v6.035h6.046v-6.035z" fill="#fff"/><path opacity=".97" d="M617.113 691.231h-6.045v6.035h6.045v-6.035z" fill="#fff"/><path opacity=".26" d="M536.453 699.163h-6.045v6.036h6.045v-6.036z" fill="#fff"/><path opacity=".92" d="M544.398 699.163h-6.045v6.036h6.045v-6.036z" fill="#fff"/><path opacity=".33" d="M552.516 699.163h-6.045v6.036h6.045v-6.036z" fill="#fff"/><path opacity=".23" d="M560.634 699.163h-6.045v6.036h6.045v-6.036z" fill="#fff"/><path opacity=".42" d="M568.752 699.163h-6.046v6.036h6.046v-6.036z" fill="#fff"/><path opacity=".57" d="M576.697 699.163h-6.045v6.036h6.045v-6.036z" fill="#fff"/><path opacity=".73" d="M584.815 699.163h-6.045v6.036h6.045v-6.036z" fill="#fff"/><path opacity=".87" d="M592.933 699.163h-6.046v6.036h6.046v-6.036z" fill="#fff"/><path opacity=".22" d="M600.878 699.163h-6.045v6.036h6.045v-6.036z" fill="#fff"/><path opacity=".89" d="M608.996 699.163h-6.046v6.036h6.046v-6.036z" fill="#fff"/><path opacity=".73" d="M617.113 699.163h-6.045v6.036h6.045v-6.036z" fill="#fff"/><path opacity=".35" d="M536.453 707.096h-6.045v6.035h6.045v-6.035z" fill="#fff"/><path opacity=".81" d="M544.398 707.096h-6.045v6.035h6.045v-6.035z" fill="#fff"/><path opacity=".56" d="M552.516 707.096h-6.045v6.035h6.045v-6.035z" fill="#fff"/><path opacity=".81" d="M560.634 707.096h-6.045v6.035h6.045v-6.035z" fill="#fff"/><path opacity=".87" d="M568.752 707.096h-6.046v6.035h6.046v-6.035z" fill="#fff"/><path opacity=".39" d="M576.697 707.096h-6.045v6.035h6.045v-6.035z" fill="#fff"/><path opacity=".31" d="M584.815 707.096h-6.045v6.035h6.045v-6.035z" fill="#fff"/><path opacity=".98" d="M592.933 707.096h-6.046v6.035h6.046v-6.035z" fill="#fff"/><path opacity=".17" d="M600.878 707.096h-6.045v6.035h6.045v-6.035z" fill="#fff"/><path opacity=".06" d="M608.996 707.096h-6.046v6.035h6.046v-6.035z" fill="#fff"/><path opacity=".57" d="M617.113 707.096h-6.045v6.035h6.045v-6.035z" fill="#fff"/><path opacity=".67" d="M536.453 715.028h-6.045v6.036h6.045v-6.036z" fill="#fff"/><path opacity=".83" d="M544.398 715.028h-6.045v6.036h6.045v-6.036z" fill="#fff"/><path opacity=".99" d="M552.516 715.028h-6.045v6.036h6.045v-6.036z" fill="#fff"/><path opacity=".62" d="M560.634 715.028h-6.045v6.036h6.045v-6.036z" fill="#fff"/><path opacity=".87" d="M568.752 715.028h-6.046v6.036h6.046v-6.036z" fill="#fff"/><path opacity=".14" d="M576.697 715.028h-6.045v6.036h6.045v-6.036z" fill="#fff"/><path opacity=".12" d="M584.815 715.028h-6.045v6.036h6.045v-6.036z" fill="#fff"/><path opacity=".11" d="M592.933 715.028h-6.046v6.036h6.046v-6.036z" fill="#fff"/><path opacity=".39" d="M600.878 715.028h-6.045v6.036h6.045v-6.036z" fill="#fff"/><path opacity=".58" d="M608.996 715.028h-6.046v6.036h6.046v-6.036z" fill="#fff"/><path opacity=".54" d="M617.113 715.028h-6.045v6.036h6.045v-6.036z" fill="#fff"/><path opacity=".99" d="M536.453 722.961h-6.045v6.035h6.045v-6.035z" fill="#fff"/><path opacity=".28" d="M544.398 722.961h-6.045v6.035h6.045v-6.035z" fill="#fff"/><path opacity=".78" d="M552.516 722.961h-6.045v6.035h6.045v-6.035z" fill="#fff"/><path opacity=".65" d="M560.634 722.961h-6.045v6.035h6.045v-6.035z" fill="#fff"/><path opacity=".32" d="M568.752 722.961h-6.046v6.035h6.046v-6.035z" fill="#fff"/><path opacity=".55" d="M576.697 722.961h-6.045v6.035h6.045v-6.035z" fill="#fff"/><path opacity=".4" d="M584.815 722.961h-6.045v6.035h6.045v-6.035z" fill="#fff"/><path opacity=".22" d="M592.933 722.961h-6.046v6.035h6.046v-6.035z" fill="#fff"/><path opacity=".87" d="M600.878 722.961h-6.045v6.035h6.045v-6.035z" fill="#fff"/><path opacity=".02" d="M608.996 722.961h-6.046v6.035h6.046v-6.035z" fill="#fff"/><path opacity=".39" d="M617.113 722.961h-6.045v6.035h6.045v-6.035z" fill="#fff"/><path opacity=".89" d="M536.453 730.893h-6.045v6.036h6.045v-6.036z" fill="#fff"/><path opacity=".97" d="M544.398 730.893h-6.045v6.036h6.045v-6.036z" fill="#fff"/><path opacity=".79" d="M552.516 730.893h-6.045v6.036h6.045v-6.036z" fill="#fff"/><path opacity=".41" d="M560.634 730.893h-6.045v6.036h6.045v-6.036z" fill="#fff"/><path opacity=".13" d="M568.752 730.893h-6.046v6.036h6.046v-6.036z" fill="#fff"/><path opacity=".9" d="M576.697 730.893h-6.045v6.036h6.045v-6.036z" fill="#fff"/><path opacity=".98" d="M584.815 730.893h-6.045v6.036h6.045v-6.036z" fill="#fff"/><path opacity=".67" d="M592.933 730.893h-6.046v6.036h6.046v-6.036z" fill="#fff"/><path opacity=".65" d="M600.878 730.893h-6.045v6.036h6.045v-6.036z" fill="#fff"/><path opacity=".89" d="M608.996 730.893h-6.046v6.036h6.046v-6.036z" fill="#fff"/><path opacity=".98" d="M617.113 730.893h-6.045v6.036h6.045v-6.036z" fill="#fff"/><path opacity=".29" d="M536.453 738.826h-6.045v6.035h6.045v-6.035z" fill="#fff"/><path opacity=".74" d="M544.398 738.826h-6.045v6.035h6.045v-6.035z" fill="#fff"/><path opacity=".64" d="M552.516 738.826h-6.045v6.035h6.045v-6.035z" fill="#fff"/><path opacity=".65" d="M560.634 738.826h-6.045v6.035h6.045v-6.035z" fill="#fff"/><path opacity=".07" d="M568.752 738.826h-6.046v6.035h6.046v-6.035z" fill="#fff"/><path opacity=".16" d="M576.697 738.826h-6.045v6.035h6.045v-6.035z" fill="#fff"/><path opacity=".84" d="M584.815 738.826h-6.045v6.035h6.045v-6.035z" fill="#fff"/><path opacity=".88" d="M592.933 738.826h-6.046v6.035h6.046v-6.035z" fill="#fff"/><path opacity=".57" d="M600.878 738.826h-6.045v6.035h6.045v-6.035z" fill="#fff"/><path opacity=".31" d="M608.996 738.826h-6.046v6.035h6.046v-6.035z" fill="#fff"/><path opacity=".03" d="M617.113 738.826h-6.045v6.035h6.045v-6.035z" fill="#fff"/><path opacity=".3" d="M536.453 746.758h-6.045v6.036h6.045v-6.036z" fill="#fff"/><path opacity=".59" d="M544.398 746.758h-6.045v6.036h6.045v-6.036z" fill="#fff"/><path opacity=".93" d="M552.516 746.758h-6.045v6.036h6.045v-6.036z" fill="#fff"/><path opacity=".06" d="M560.634 746.758h-6.045v6.036h6.045v-6.036z" fill="#fff"/><path opacity=".74" d="M568.752 746.758h-6.046v6.036h6.046v-6.036z" fill="#fff"/><path opacity=".22" d="M576.697 746.758h-6.045v6.036h6.045v-6.036z" fill="#fff"/><path opacity=".51" d="M584.815 746.758h-6.045v6.036h6.045v-6.036z" fill="#fff"/><path opacity=".7" d="M592.933 746.758h-6.046v6.036h6.046v-6.036z" fill="#fff"/><path opacity=".47" d="M600.878 746.758h-6.045v6.036h6.045v-6.036z" fill="#fff"/><path opacity=".08" d="M608.996 746.758h-6.046v6.036h6.046v-6.036z" fill="#fff"/><path opacity=".93" d="M617.113 746.758h-6.045v6.036h6.045v-6.036z" fill="#fff"/><path opacity=".81" d="M536.453 754.69h-6.045v6.036h6.045v-6.036z" fill="#fff"/><path opacity=".9" d="M544.398 754.69h-6.045v6.036h6.045v-6.036z" fill="#fff"/><path opacity=".55" d="M552.516 754.69h-6.045v6.036h6.045v-6.036z" fill="#fff"/><path opacity=".14" d="M560.634 754.69h-6.045v6.036h6.045v-6.036z" fill="#fff"/><path opacity=".66" d="M568.752 754.69h-6.046v6.036h6.046v-6.036z" fill="#fff"/><path opacity=".92" d="M576.697 754.69h-6.045v6.036h6.045v-6.036z" fill="#fff"/><path opacity=".4" d="M584.815 754.69h-6.045v6.036h6.045v-6.036z" fill="#fff"/><path opacity=".6" d="M592.933 754.69h-6.046v6.036h6.046v-6.036z" fill="#fff"/><path opacity=".99" d="M600.878 754.69h-6.045v6.036h6.045v-6.036z" fill="#fff"/><path opacity=".68" d="M608.996 754.69h-6.046v6.036h6.046v-6.036z" fill="#fff"/><path opacity=".01" d="M617.113 754.69h-6.045v6.036h6.045v-6.036z" fill="#fff"/><path opacity=".82" d="M536.453 762.623h-6.045v6.035h6.045v-6.035z" fill="#fff"/><path opacity=".92" d="M544.398 762.623h-6.045v6.035h6.045v-6.035z" fill="#fff"/><path opacity=".29" d="M552.516 762.623h-6.045v6.035h6.045v-6.035z" fill="#fff"/><path opacity=".73" d="M560.634 762.623h-6.045v6.035h6.045v-6.035z" fill="#fff"/><path opacity=".42" d="M568.752 762.623h-6.046v6.035h6.046v-6.035z" fill="#fff"/><path opacity=".06" d="M576.697 762.623h-6.045v6.035h6.045v-6.035z" fill="#fff"/><path opacity=".7" d="M584.815 762.623h-6.045v6.035h6.045v-6.035z" fill="#fff"/><path opacity=".97" d="M592.933 762.623h-6.046v6.035h6.046v-6.035z" fill="#fff"/><path opacity=".51" d="M600.878 762.623h-6.045v6.035h6.045v-6.035z" fill="#fff"/><path opacity=".69" d="M608.996 762.623h-6.046v6.035h6.046v-6.035z" fill="#fff"/><path opacity=".49" d="M617.113 762.623h-6.045v6.035h6.045v-6.035z" fill="#fff"/><path opacity=".45" d="M536.453 770.555h-6.045v6.036h6.045v-6.036z" fill="#fff"/><path opacity=".46" d="M544.398 770.555h-6.045v6.036h6.045v-6.036z" fill="#fff"/><path opacity=".04" d="M552.516 770.555h-6.045v6.036h6.045v-6.036z" fill="#fff"/><path opacity=".56" d="M560.634 770.555h-6.045v6.036h6.045v-6.036z" fill="#fff"/><path opacity=".4" d="M568.752 770.555h-6.046v6.036h6.046v-6.036z" fill="#fff"/><path opacity=".59" d="M576.697 770.555h-6.045v6.036h6.045v-6.036z" fill="#fff"/><path opacity=".82" d="M584.815 770.555h-6.045v6.036h6.045v-6.036z" fill="#fff"/><path opacity=".99" d="M592.933 770.555h-6.046v6.036h6.046v-6.036z" fill="#fff"/><path opacity=".1" d="M600.878 770.555h-6.045v6.036h6.045v-6.036z" fill="#fff"/><path opacity=".87" d="M608.996 770.555h-6.046v6.036h6.046v-6.036z" fill="#fff"/><path d="M617.113 770.555h-6.045v6.036h6.045v-6.036z" fill="#fff"/><path d="M434.375 596.732h-56.997v178.307h56.997V596.732z" fill="#333"/><path d="M403.286 587.765h-25.908v10.001h25.908v-10.001z" fill="#333"/><path d="M392.404 581.902h-15.026v5.863h15.026v-5.863z" fill="#333"/><path opacity=".25" d="M410.367 609.32h-9.327v9.312h9.327v-9.312z" fill="#fff"/><path opacity=".15" d="M410.367 632.255h-9.327v9.312h9.327v-9.312z" fill="#fff"/><path opacity=".19" d="M410.367 677.953h-9.327v9.312h9.327v-9.312z" fill="#fff"/><path opacity=".17" d="M410.367 700.716h-9.327v9.312h9.327v-9.312z" fill="#fff"/><path opacity=".22" d="M410.367 723.478h-9.327v9.312h9.327v-9.312z" fill="#fff"/><path d="M410.367 746.414h-9.327v9.312h9.327v-9.312z" fill="#fff"/><path d="M392.059 696.06h-53.371v15.692h53.371V696.06z" fill="#333"/><path d="M418.658 696.06h-26.599v15.692h26.599V696.06z" fill="#4D4D4D"/><path d="M338.688 696.06l16.582-7.933 36.789 7.933h-53.371z" fill="#333"/><path d="M355.27 688.127l36.789 7.933h26.599l-63.388-7.933z" fill="#4D4D4D"/><path d="M404.495 707.096h-78.07v71.392h78.07v-71.392z" fill="#333"/><path d="M430.403 707.096h-25.908v71.392h25.908v-71.392z" fill="#4D4D4D"/><path opacity=".81" d="M424.358 712.097h-13.991v5.173h13.991v-5.173z" fill="#fff"/><path opacity=".76" d="M424.358 721.581h-13.991v5.174h13.991v-5.174z" fill="#fff"/><path opacity=".32" d="M424.358 731.066h-13.991v5.173h13.991v-5.173z" fill="#fff"/><path opacity=".49" d="M424.358 740.723h-13.991v5.173h13.991v-5.173z" fill="#fff"/><path opacity=".99" d="M424.358 759.691h-13.991v5.174h13.991v-5.174z" fill="#fff"/><path opacity=".1" d="M352.852 712.097h-13.991v5.173h13.991v-5.173z" fill="#fff"/><path opacity=".04" d="M372.369 712.097h-13.991v5.173h13.991v-5.173z" fill="#fff"/><path opacity=".07" d="M392.059 712.097h-13.99v5.173h13.99v-5.173z" fill="#fff"/><path opacity=".06" d="M352.852 721.582h-13.991v5.173h13.991v-5.173z" fill="#fff"/><path opacity=".44" d="M372.369 721.582h-13.991v5.173h13.991v-5.173z" fill="#fff"/><path opacity=".24" d="M392.059 721.582h-13.99v5.173h13.99v-5.173z" fill="#fff"/><path opacity=".55" d="M352.852 731.066h-13.991v5.173h13.991v-5.173z" fill="#fff"/><path opacity=".02" d="M372.369 731.066h-13.991v5.173h13.991v-5.173z" fill="#fff"/><path opacity=".14" d="M392.059 731.066h-13.99v5.173h13.99v-5.173z" fill="#fff"/><path opacity=".43" d="M352.852 740.723h-13.991v5.173h13.991v-5.173z" fill="#fff"/><path opacity=".41" d="M372.369 740.723h-13.991v5.173h13.991v-5.173z" fill="#fff"/><path opacity=".46" d="M392.059 740.723h-13.99v5.173h13.99v-5.173z" fill="#fff"/><path opacity=".45" d="M352.852 750.207h-13.991v5.173h13.991v-5.173z" fill="#fff"/><path opacity=".33" d="M372.369 750.207h-13.991v5.173h13.991v-5.173z" fill="#fff"/><path opacity=".05" d="M392.059 750.207h-13.99v5.173h13.99v-5.173z" fill="#fff"/><path opacity=".27" d="M352.852 759.692h-13.991v5.173h13.991v-5.173z" fill="#fff"/><path opacity=".15" d="M372.369 759.692h-13.991v5.173h13.991v-5.173z" fill="#fff"/><path opacity=".7" d="M392.059 759.692h-13.99v5.173h13.99v-5.173z" fill="#fff"/><path d="M24.683 635.704H-23.68v148.82h48.362v-148.82z" fill="#333"/><path d="M79.78 635.704H24.857v148.82H79.78v-148.82zm-55.097 12.589H-23.68v2.587h48.362v-2.587z" fill="#4D4D4D"/><path d="M79.78 648.293H24.857v2.587H79.78v-2.587z" fill="#333"/><path opacity=".25" d="M6.72 653.811H1.538v5.173H6.72v-5.173z" fill="#fff"/><path opacity=".12" d="M20.883 653.811h-5.182v5.173h5.182v-5.173z" fill="#fff"/><path opacity=".47" d="M6.72 660.881H1.538v5.173H6.72v-5.173z" fill="#fff"/><path opacity=".22" d="M13.802 660.881H8.62v5.173h5.182v-5.173z" fill="#fff"/><path opacity=".32" d="M20.883 660.881h-5.182v5.173h5.182v-5.173z" fill="#fff"/><path opacity=".28" d="M6.72 667.951H1.538v5.174H6.72v-5.174z" fill="#fff"/><path opacity=".2" d="M20.883 667.951h-5.182v5.174h5.182v-5.174z" fill="#fff"/><path opacity=".05" d="M6.72 675.021H1.538v5.174H6.72v-5.174z" fill="#fff"/><path opacity=".08" d="M13.802 675.021H8.62v5.174h5.182v-5.174zm-7.082 7.071H1.538v5.173H6.72v-5.173z" fill="#fff"/><path opacity=".02" d="M13.802 682.092H8.62v5.173h5.182v-5.173z" fill="#fff"/><path opacity=".2" d="M6.72 689.162H1.538v5.173H6.72v-5.173z" fill="#fff"/><path opacity=".23" d="M13.802 689.162H8.62v5.173h5.182v-5.173z" fill="#fff"/><path opacity=".24" d="M13.802 696.232H8.62v5.174h5.182v-5.174z" fill="#fff"/><path opacity=".02" d="M6.72 703.302H1.538v5.174H6.72v-5.174z" fill="#fff"/><path opacity=".04" d="M13.802 703.302H8.62v5.174h5.182v-5.174z" fill="#fff"/><path opacity=".3" d="M20.883 703.302h-5.182v5.174h5.182v-5.174z" fill="#fff"/><path opacity=".4" d="M20.883 710.2h-5.182v5.174h5.182V710.2z" fill="#fff"/><path opacity=".19" d="M13.802 717.271H8.62v5.173h5.182v-5.173z" fill="#fff"/><path opacity=".43" d="M20.883 717.271h-5.182v5.173h5.182v-5.173z" fill="#fff"/><path opacity=".42" d="M6.72 724.341H1.538v5.173H6.72v-5.173z" fill="#fff"/><path opacity=".31" d="M20.883 724.341h-5.182v5.173h5.182v-5.173zm-14.163 7.07H1.538v5.173H6.72v-5.173z" fill="#fff"/><path opacity=".33" d="M20.883 731.411h-5.182v5.173h5.182v-5.173z" fill="#fff"/><path opacity=".17" d="M6.72 738.481H1.538v5.174H6.72v-5.174z" fill="#fff"/><path opacity=".01" d="M13.802 738.481H8.62v5.174h5.182v-5.174z" fill="#fff"/><path opacity=".48" d="M20.883 738.481h-5.182v5.174h5.182v-5.174z" fill="#fff"/><path opacity=".02" d="M6.72 745.551H1.538v5.174H6.72v-5.174z" fill="#fff"/><path opacity=".17" d="M13.802 745.551H8.62v5.174h5.182v-5.174z" fill="#fff"/><path opacity=".42" d="M20.883 745.551h-5.182v5.174h5.182v-5.174z" fill="#fff"/><path opacity=".02" d="M6.72 752.622H1.538v5.173H6.72v-5.173z" fill="#fff"/><path opacity=".3" d="M20.883 752.622h-5.182v5.173h5.182v-5.173z" fill="#fff"/><path opacity=".05" d="M6.72 759.692H1.538v5.173H6.72v-5.173z" fill="#fff"/><path opacity=".2" d="M20.883 759.692h-5.182v5.173h5.182v-5.173z" fill="#fff"/><path opacity=".27" d="M6.72 766.762H1.538v5.174H6.72v-5.174z" fill="#fff"/><path opacity=".13" d="M13.802 766.762H8.62v5.174h5.182v-5.174z" fill="#fff"/><path opacity=".12" d="M6.72 773.832H1.538v5.174H6.72v-5.174z" fill="#fff"/><path opacity=".04" d="M13.802 773.832H8.62v5.174h5.182v-5.174z" fill="#fff"/><path opacity=".3" d="M20.883 773.832h-5.182v5.174h5.182v-5.174z" fill="#fff"/><path opacity=".08" d="M13.802 653.811H8.62v5.173h5.182v-5.173zm0 14.14H8.62v5.174h5.182v-5.174z" fill="#fff"/><path opacity=".01" d="M20.883 675.021h-5.182v5.174h5.182v-5.174z" fill="#fff"/><path opacity=".12" d="M20.883 682.092h-5.182v5.173h5.182v-5.173z" fill="#fff"/><path opacity=".13" d="M6.72 696.232H1.538v5.174H6.72v-5.174z" fill="#fff"/><path opacity=".07" d="M20.883 696.232h-5.182v5.174h5.182v-5.174z" fill="#fff"/><path opacity=".02" d="M6.72 710.2H1.538v5.174H6.72V710.2z" fill="#fff"/><path opacity=".14" d="M13.802 710.2H8.62v5.174h5.182V710.2z" fill="#fff"/><path opacity=".02" d="M13.802 724.341H8.62v5.173h5.182v-5.173z" fill="#fff"/><path opacity=".06" d="M13.802 731.411H8.62v5.173h5.182v-5.173z" fill="#fff"/><path opacity=".04" d="M13.802 752.622H8.62v5.173h5.182v-5.173zm0 7.07H8.62v5.173h5.182v-5.173z" fill="#fff"/><path opacity=".18" d="M20.883 766.762h-5.182v5.174h5.182v-5.174z" fill="#fff"/><path opacity=".7" d="M35.219 650.879h-5.355v127.092h5.355V650.879zm9.154 0h-5.354v127.092h5.354V650.879zm9.327 0h-5.354v127.092H53.7V650.879zm9.327 0h-5.355v127.092h5.355V650.879zm9.327 0h-5.355v127.092h5.355V650.879z" fill="#E6E6E6"/><path d="M107.416 777.971H-.016l107.432-93.465v93.465z" fill="#333"/><path d="M98.262 761.417H61.3v20.693h36.962v-20.693z" fill="#4D4D4D"/><path d="M95.498 756.588H64.063v9.657h31.435v-9.657z" fill="#4D4D4D"/><path d="M91.871 759.52H67.518l8.463-14.141h7.427l8.463 14.141z" fill="#4D4D4D"/><path d="M88.417 765.555H71.145v12.589h17.272v-12.589z" fill="#fff"/><path d="M90.49 770.556H69.071v2.587h21.417v-2.587z" fill="#4D4D4D"/><path d="M263.21 795.388c.518 13.451-9.845 25.004-23.49 25.522-13.472.517-25.045-10.002-25.563-23.453-.518-13.45 9.845-25.004 23.49-25.521 13.472-.518 24.872 10.001 25.563 23.452z" fill="#333"/><path d="M259.064 788.662c.346 7.76-5.699 14.313-13.472 14.658-7.772.345-14.335-5.69-14.681-13.45-.345-7.76 5.7-14.313 13.472-14.658 7.773-.345 14.336 5.69 14.681 13.45z" fill="#4D4D4D"/><path d="M16.565 770.039c0 3.276-2.764 6.035-6.045 6.035-3.282 0-6.045-2.759-6.045-6.035 0-3.277 2.763-6.036 6.045-6.036s6.045 2.587 6.045 6.036z" fill="#333"/><path d="M18.638 776.074a8.102 8.102 0 01-8.118 8.105 8.102 8.102 0 01-8.118-8.105 8.102 8.102 0 018.118-8.105 8.102 8.102 0 018.118 8.105z" fill="#333"/><path d="M14.492 764.865c0 2.242-1.727 4.139-3.972 4.139s-3.973-1.897-3.973-4.139c0-2.241 1.728-4.138 3.973-4.138s3.972 1.897 3.972 4.138z" fill="#333"/><path d="M15.701 770.039a3.462 3.462 0 01-3.454 3.449 3.462 3.462 0 01-3.454-3.449 3.462 3.462 0 013.454-3.449c1.9 0 3.454 1.552 3.454 3.449z" fill="#4D4D4D"/><path d="M13.974 765.383c0 1.379-1.209 2.586-2.59 2.586-1.382 0-2.591-1.207-2.591-2.586 0-1.38 1.209-2.587 2.59-2.587 1.382-.172 2.591 1.035 2.591 2.587z" fill="#4D4D4D"/><path d="M131.77 782.627c0 4.311-3.628 7.932-7.946 7.932s-7.945-3.621-7.945-7.932a7.918 7.918 0 017.945-7.933c4.318 0 7.946 3.622 7.946 7.933z" fill="#333"/><path d="M129.006 775.902c0 2.931-2.245 5.346-5.182 5.346-2.936 0-5.181-2.415-5.181-5.346 0-2.932 2.245-5.346 5.181-5.346 2.764 0 5.182 2.414 5.182 5.346z" fill="#333"/><path d="M128.315 776.419a3.461 3.461 0 01-3.454 3.449 3.462 3.462 0 01-3.455-3.449 3.462 3.462 0 013.455-3.449c1.9 0 3.454 1.552 3.454 3.449z" fill="#4D4D4D"/><path d="M121.061 788.49c-.864 8.278-8.291 14.141-16.408 13.278-8.291-.862-14.164-8.277-13.3-16.382.864-8.277 8.29-14.14 16.408-13.278 8.118.862 14.164 8.105 13.3 16.382z" fill="#333"/><path d="M117.261 775.212c-.518 5.518-5.354 9.657-10.881 9.14-5.355-.518-9.327-5.518-8.81-11.037.52-5.518 5.355-9.657 10.882-9.139 5.527.517 9.327 5.518 8.809 11.036z" fill="#333"/><path d="M115.879 776.247c-.345 3.621-3.627 6.208-7.081 5.863-3.627-.345-6.218-3.621-5.873-7.07.346-3.622 3.627-6.208 7.082-5.863 3.627.344 6.218 3.621 5.872 7.07z" fill="#4D4D4D"/><path d="M199.303 781.248c0 7.587-6.045 13.623-13.645 13.623s-13.645-6.036-13.645-13.623c0-7.588 6.045-13.623 13.645-13.623 7.427 0 13.645 6.035 13.645 13.623z" fill="#333"/><path d="M194.467 769.521c0 5.174-3.973 9.312-8.981 9.312-5.009 0-8.982-4.138-8.982-9.312 0-5.173 3.973-9.312 8.982-9.312 5.008.173 8.981 4.311 8.981 9.312z" fill="#333"/><path d="M197.231 781.248a7.918 7.918 0 01-7.946 7.932c-4.318 0-7.945-3.449-7.945-7.932a7.918 7.918 0 017.945-7.933c4.318.173 7.946 3.622 7.946 7.933z" fill="#4D4D4D"/><path d="M193.258 770.728c0 3.277-2.591 6.036-6.045 6.036-3.282 0-6.045-2.587-6.045-6.036 0-3.276 2.59-5.863 6.045-5.863 3.454-.172 6.045 2.587 6.045 5.863z" fill="#4D4D4D"/><path d="M169.077 792.628c0 9.657-7.945 17.59-17.617 17.59-9.673 0-17.618-7.933-17.618-17.59 0-9.656 7.945-17.589 17.618-17.589 9.672 0 17.617 7.76 17.617 17.589z" fill="#333"/><path d="M163.032 777.454c0 6.552-5.182 11.898-11.572 11.898-6.391 0-11.573-5.346-11.573-11.898 0-6.553 5.182-11.899 11.573-11.899 6.39 0 11.572 5.346 11.572 11.899z" fill="#333"/><path d="M161.477 779.006c0 4.311-3.454 7.587-7.772 7.587s-7.773-3.449-7.773-7.587a7.734 7.734 0 017.773-7.76 7.734 7.734 0 017.772 7.76z" fill="#4D4D4D"/><path d="M211.739 779.523c0 2.069-1.554 3.621-3.454 3.621-1.9 0-3.455-1.552-3.455-3.621s1.555-3.621 3.455-3.621c1.9 0 3.454 1.552 3.454 3.621zm74.27-4.311c0 6.726-5.355 12.071-12.091 12.071-6.736 0-12.09-5.345-12.09-12.071 0-6.725 5.354-12.071 12.09-12.071s12.091 5.346 12.091 12.071z" fill="#333"/><path d="M290.154 787.283c0 8.968-7.254 16.21-16.236 16.21-8.981 0-16.235-7.242-16.235-16.21 0-8.967 7.254-16.209 16.235-16.209 8.982 0 16.236 7.242 16.236 16.209z" fill="#333"/><path d="M281.864 764.866c0 4.483-3.628 8.277-7.946 8.277s-7.945-3.621-7.945-8.277c0-4.484 3.627-8.278 7.945-8.278 4.318 0 7.946 3.794 7.946 8.278z" fill="#333"/><path d="M284.109 775.212c0 3.794-3.109 6.898-6.909 6.898s-6.909-3.104-6.909-6.898c0-3.794 3.109-6.898 6.909-6.898s6.909 3.104 6.909 6.898z" fill="#4D4D4D"/><path d="M280.827 765.9c0 2.932-2.418 5.346-5.354 5.346s-5.354-2.414-5.354-5.346c0-2.931 2.418-5.345 5.354-5.345s5.354 2.414 5.354 5.345z" fill="#4D4D4D"/><path d="M331.089 790.387c0 8.967-7.254 16.21-16.236 16.21-8.981 0-16.236-7.243-16.236-16.21s7.255-16.21 16.236-16.21c8.982.173 16.236 7.416 16.236 16.21z" fill="#333"/><path d="M325.389 776.592c0 6.035-4.836 11.036-10.536 11.036-5.873 0-10.709-4.828-10.709-11.036 0-6.036 4.836-10.864 10.709-10.864 5.872 0 10.536 4.828 10.536 10.864z" fill="#333"/><path d="M324.007 777.972c0 3.966-3.109 7.07-7.081 7.07-3.973 0-7.082-3.104-7.082-7.07 0-3.967 3.109-7.071 7.082-7.071 3.972 0 7.081 3.104 7.081 7.071z" fill="#4D4D4D"/><path d="M595.351 796.94c0 14.83-11.918 26.729-26.772 26.729s-26.772-11.899-26.772-26.729 11.918-26.729 26.772-26.729 26.772 12.071 26.772 26.729z" fill="#333"/><path d="M591.378 789.525c0 8.45-6.909 15.348-15.372 15.348-8.463 0-15.372-6.898-15.372-15.348 0-8.45 6.909-15.347 15.372-15.347 8.463 0 15.372 6.897 15.372 15.347z" fill="#4D4D4D"/><path d="M629.722 785.386c0 12.416-10.19 22.591-22.626 22.591-12.436 0-22.627-10.175-22.627-22.591s10.191-22.59 22.627-22.59c12.608 0 22.626 10.002 22.626 22.59z" fill="#333"/><path d="M626.268 779.006c0 7.243-5.873 12.933-12.954 12.933-7.255 0-12.954-5.863-12.954-12.933 0-7.07 5.872-12.933 12.954-12.933 7.081 0 12.954 5.863 12.954 12.933z" fill="#4D4D4D"/><path d="M572.034 789.008c0 12.416-10.191 22.59-22.627 22.59-12.436 0-22.626-10.174-22.626-22.59s10.19-22.591 22.626-22.591c12.609 0 22.627 10.002 22.627 22.591z" fill="#333"/><path d="M568.579 782.627c0 7.243-5.872 12.933-12.954 12.933-7.081 0-12.954-5.863-12.954-12.933 0-7.242 5.873-12.933 12.954-12.933 7.082 0 12.954 5.691 12.954 12.933z" fill="#4D4D4D"/><path d="M502.255 794.181c0 12.416-10.191 22.59-22.627 22.59-12.436 0-22.626-10.174-22.626-22.59s10.19-22.59 22.626-22.59c12.609 0 22.627 10.174 22.627 22.59z" fill="#333"/><path d="M498.8 787.801c0 7.243-5.872 12.933-12.954 12.933-7.254 0-12.954-5.863-12.954-12.933 0-7.243 5.873-12.933 12.954-12.933 7.082 0 12.954 5.863 12.954 12.933z" fill="#4D4D4D"/><path d="M474.965 790.387c0 12.416-10.191 22.591-22.627 22.591-12.436 0-22.626-10.175-22.626-22.591s10.19-22.59 22.626-22.59c12.436 0 22.627 10.002 22.627 22.59z" fill="#333"/><path d="M471.51 784.007c0 7.243-5.872 12.933-12.954 12.933-7.254 0-12.954-5.863-12.954-12.933 0-7.243 5.873-12.933 12.954-12.933 7.082 0 12.954 5.69 12.954 12.933z" fill="#4D4D4D"/><path d="M492.582 786.766c0 7.242-5.872 12.933-12.954 12.933-7.254 0-12.954-5.863-12.954-12.933 0-7.243 5.873-12.934 12.954-12.934 7.254 0 12.954 5.863 12.954 12.934z" fill="#4D4D4D"/><path d="M396.032 787.8c0 8.105-6.564 14.83-14.854 14.83-8.118 0-14.854-6.552-14.854-14.83 0-8.105 6.563-14.83 14.854-14.83 8.29.172 14.854 6.725 14.854 14.83z" fill="#333"/><path d="M393.786 783.661c0 4.657-3.8 8.45-8.463 8.45-4.663 0-8.463-3.793-8.463-8.45 0-4.656 3.8-8.449 8.463-8.449 4.663 0 8.463 3.793 8.463 8.449z" fill="#4D4D4D"/><path d="M7.93 776.074c0 6.898-5.528 12.416-12.437 12.416s-12.436-5.518-12.436-12.416c0-6.898 5.527-12.416 12.436-12.416 6.736-.172 12.436 5.518 12.436 12.416z" fill="#333"/><path d="M12.074 788.49c0 9.312-7.427 16.727-16.754 16.727-9.326 0-16.753-7.415-16.753-16.727 0-9.312 7.427-16.727 16.753-16.727 9.327 0 16.754 7.415 16.754 16.727z" fill="#333"/><path d="M3.611 765.383c0 4.656-3.627 8.449-8.29 8.449-4.491 0-8.291-3.793-8.291-8.449s3.627-8.45 8.29-8.45c4.664 0 8.291 3.794 8.291 8.45z" fill="#333"/><path d="M6.029 776.074c0 3.966-3.282 7.243-7.254 7.243-3.973 0-7.254-3.277-7.254-7.243s3.281-7.243 7.254-7.243c3.972 0 7.254 3.277 7.254 7.243z" fill="#4D4D4D"/><path d="M2.575 766.417c0 2.932-2.418 5.519-5.527 5.519-2.937 0-5.527-2.415-5.527-5.519 0-2.931 2.418-5.518 5.527-5.518 2.936 0 5.527 2.414 5.527 5.518z" fill="#4D4D4D"/><path d="M66.827 780.903c0 5.518-4.491 10.002-10.018 10.002-5.527 0-10.018-4.484-10.018-10.002 0-5.518 4.49-10.002 10.018-10.002 5.527 0 10.018 4.484 10.018 10.002z" fill="#333"/><path d="M63.372 772.281c0 3.794-2.936 6.898-6.563 6.898s-6.563-3.104-6.563-6.898c0-3.794 2.936-6.898 6.563-6.898 3.627.173 6.563 3.104 6.563 6.898z" fill="#333"/><path d="M65.272 780.903c0 3.276-2.59 5.863-5.872 5.863s-5.873-2.587-5.873-5.863c0-3.104 2.591-5.691 5.873-5.691 3.281-.172 5.872 2.414 5.872 5.691z" fill="#4D4D4D"/><path d="M62.509 773.143c0 2.414-1.9 4.311-4.318 4.311-2.418 0-4.318-1.897-4.318-4.311 0-2.414 1.9-4.311 4.318-4.311 2.418-.173 4.318 1.897 4.318 4.311z" fill="#4D4D4D"/></g><defs><clipPath id="clip0"><path fill="#fff" transform="translate(-399 .194)" d="M0 0h1127v776H0z"/></clipPath></defs></svg>